<svg xmlns="http://www.w3.org/2000/svg" version="1.1" xmlns:xlink="http://www.w3.org/1999/xlink" xmlns:svgjs="http://svgjs.dev/svgjs" width="1000" height="1125" viewBox="0 0 1000 1125"><g transform="matrix(1,0,0,1,0.0005762637636053114,0)"><svg viewBox="0 0 320 360" data-background-color="#282634" preserveAspectRatio="xMidYMid meet" height="1125" width="1000" xmlns="http://www.w3.org/2000/svg" xmlns:xlink="http://www.w3.org/1999/xlink"><g id="tight-bounds" transform="matrix(1,0,0,1,0.00018440440442191175,0)"><svg viewBox="0 0 320 360" height="360" width="320"><g><svg></svg></g><g><svg viewBox="0 0 320 360" height="360" width="320"><g><path xmlns="http://www.w3.org/2000/svg" d="M294.684 112.125c-8.775-10.699-25.381-16.201-43-22.006-7.56-2.498-15.357-5.097-22.985-8.235-7.695-3.173-15.256-7.257-22.613-11.172-14.952-8.033-30.41-16.336-46.105-16.336-15.661 0-31.119 8.303-46.071 16.336-7.358 3.949-14.952 8.033-22.648 11.205-7.594 3.139-15.425 5.704-22.985 8.236-17.618 5.839-34.224 11.341-42.999 22.006-11.712 14.277-11.442 35.439-11.172 57.817 0.034 3.375 0.068 6.717 0.067 10.024 0 3.308-0.034 6.649-0.101 10.024-0.27 22.411-0.54 43.54 11.172 57.851 8.775 10.666 25.381 16.167 42.966 22.006 7.56 2.498 15.357 5.097 23.019 8.235 7.695 3.173 15.256 7.223 22.579 11.172 14.986 8.067 30.444 16.37 46.105 16.37 15.695 0 31.153-8.303 46.105-16.336 7.358-3.949 14.918-8.033 22.614-11.172 7.594-3.139 15.357-5.704 22.884-8.202 17.72-5.873 34.326-11.374 43.101-22.039 11.712-14.277 11.442-35.439 11.171-57.817-0.034-3.409-0.101-6.75-0.101-10.058 0-3.308 0.034-6.649 0.101-9.991 0.371-22.479 0.641-43.641-11.104-57.918zM305.552 103.215c-15.728-19.171-45.801-23.727-71.486-34.326-22.985-9.45-46.375-28.588-74.051-28.587-27.676 0-51.066 19.137-74.052 28.587-25.719 10.598-55.758 15.155-71.486 34.326-17.078 20.791-14.311 50.121-14.311 76.785 0 26.63-2.768 55.994 14.277 76.785 15.728 19.171 45.801 23.727 71.487 34.326 22.985 9.484 46.375 28.588 74.051 28.587 27.676 0 51.066-19.103 74.051-28.587 25.719-10.598 55.758-15.155 71.486-34.326 17.045-20.791 14.277-50.121 14.277-76.785 0.068-26.664 2.835-55.994-14.243-76.785zM309.872 189.923c0.304 23.221 0.574 45.059-12.083 60.483-9.518 11.577-26.664 17.281-44.822 23.289-7.56 2.498-15.29 5.063-22.715 8.134-7.493 3.071-14.952 7.088-22.175 10.969-15.458 8.303-31.355 16.842-48.062 16.842-16.707 0-32.604-8.539-47.995-16.808-7.257-3.915-14.75-7.932-22.243-11.003-7.527-3.105-15.256-5.67-22.748-8.134-18.192-6.008-35.338-11.712-44.823-23.289-12.623-15.391-12.353-37.262-12.083-60.415 0.034-3.375 0.101-6.683 0.101-9.991 0-3.308-0.034-6.615-0.067-9.991-0.304-23.154-0.574-45.025 12.083-60.415 9.518-11.577 26.664-17.247 44.822-23.289 7.527-2.498 15.256-5.063 22.749-8.134 7.493-3.105 14.986-7.122 22.242-11.003 15.391-8.269 31.322-16.842 47.995-16.842 16.673 0 32.604 8.539 47.995 16.808 7.257 3.915 14.75 7.932 22.243 11.003 7.493 3.105 15.256 5.637 22.715 8.134 18.158 6.008 35.338 11.712 44.822 23.289 12.657 15.425 12.387 37.262 12.083 60.416-0.034 3.409-0.101 6.717-0.101 9.99 0 3.308 0.034 6.615 0.067 9.957z" fill="#ff4057" fill-rule="nonzero" stroke="none" stroke-width="1" stroke-linecap="butt" stroke-linejoin="miter" stroke-miterlimit="10" stroke-dasharray="" stroke-dashoffset="0" font-family="none" font-weight="none" font-size="none" text-anchor="none" style="mix-blend-mode: normal" data-fill-palette-color="tertiary"></path></g><g transform="matrix(1,0,0,1,74.4103165298945,108)"><svg viewBox="0 0 171.179366940211 144" height="144" width="171.179366940211"><g><svg viewBox="0 0 171.179366940211 144" height="144" width="171.179366940211"><g><svg viewBox="0 0 171.179366940211 144" height="144" width="171.179366940211"><g id="textblocktransform"><svg viewBox="0 0 171.179366940211 144" height="144" width="171.179366940211" id="textblock"><g><svg viewBox="0 0 171.179366940211 144" height="144" width="171.179366940211"><g transform="matrix(1,0,0,1,0,0)"><svg width="171.179366940211" viewBox="-0.05000000447034836 -42.400001525878906 50.70000076293945 42.650001525878906" height="144" data-palette-color="#282634"><path d="M11.6 0.25Q9.75 0.25 8.95-0.58 8.15-1.4 8.15-3.7L8.15-3.7Q8.15-5.25 8.45-7.45 8.75-9.65 9.5-14.1L9.5-14.1Q9.6-14.7 10.3-18.98 11-23.25 11.55-27.95L11.55-27.95Q12.05-31.95 12.05-33.95L12.05-33.95Q12.05-36.2 10.4-36.2L10.4-36.2Q9.15-36.2 7.28-34.88 5.4-33.55 3.25-30.65L3.25-30.65Q2.55-29.7 1.7-29.7L1.7-29.7Q1-29.7 0.48-30.38-0.05-31.05-0.05-31.9L-0.05-31.9Q-0.05-32.75 0.25-33.52 0.55-34.3 1.35-35.4L1.35-35.4Q3.8-38.75 6.8-40.58 9.8-42.4 13.1-42.4L13.1-42.4Q15.85-42.4 17.23-40.7 18.6-39 18.6-35.75L18.6-35.75Q18.6-32.85 17.8-27.35L17.8-27.35Q20.3-34.75 24.15-38.58 28-42.4 33.2-42.4L33.2-42.4Q37.3-42.4 39.38-40.08 41.45-37.75 41.45-33.85L41.45-33.85Q41.45-31.65 40.8-28.5L40.8-28.5 37.75-14.2Q37.25-11.7 37.25-9.9L37.25-9.9Q37.25-7.8 38.23-6.75 39.2-5.7 40.95-5.7L40.95-5.7Q42.6-5.7 44.18-6.8 45.75-7.9 47.9-10.45L47.9-10.45Q48.5-11.15 49.25-11.15L49.25-11.15Q49.9-11.15 50.28-10.55 50.65-9.95 50.65-8.9L50.65-8.9Q50.65-6.95 49.7-5.8L49.7-5.8Q47.1-2.65 44.55-1.2 42 0.25 39.2 0.25L39.2 0.25Q34.95 0.25 32.55-2.27 30.15-4.8 30.15-9.05L30.15-9.05Q30.15-10.7 30.43-12.65 30.7-14.6 31.35-17.6L31.35-17.6 33.35-26.75Q33.45-27.2 33.7-28.35 33.95-29.5 34.1-30.53 34.25-31.55 34.25-32.55L34.25-32.55Q34.25-34.15 33.35-35.1 32.45-36.05 30.8-36.05L30.8-36.05Q27.8-36.05 24.8-32.85 21.8-29.65 19.25-22.53 16.7-15.4 15.25-4.3L15.25-4.3Q14.9-1.75 14.23-0.75 13.55 0.25 11.6 0.25L11.6 0.25Z" opacity="1" transform="matrix(1,0,0,1,0,0)" fill="#282634" class="undefined-text-0" data-fill-palette-color="quaternary" id="text-0"></path></svg></g></svg></g></svg></g></svg></g></svg></g></svg></g></svg></g><defs></defs></svg><rect width="320" height="360" fill="none" stroke="none" visibility="hidden"></rect></g></svg></g></svg>